<svg xmlns="http://www.w3.org/2000/svg" xmlns:xlink="http://www.w3.org/1999/xlink" style="display:none;">
	<defs>
		<symbol viewBox="0 0 40 40" id="icon-emote-like" xmlns="http://www.w3.org/2000/svg">
			<path fill-rule="evenodd" clip-rule="evenodd" d="M13 20l4.064-6.489V7.987c0-.545.442-.987.987-.987A3.949 3.949 0 0 1 22 10.949V16h7a2 2 0 1 1 0 4 2 2 0 1 1 0 4h-1a2 2 0 1 1 0 4h-1a2 2 0 1 1 0 4H17a4 4 0 0 1-4-4v-8zm-1-.016V32H8V19.984h4z"></path>
		</symbol>
		<symbol viewBox="0 0 40 40" id="icon-emote-haha" xmlns="http://www.w3.org/2000/svg">
			<path fill-rule="evenodd" clip-rule="evenodd" d="M20 33c7.18 0 13-5.82 13-13S27.18 7 20 7 7 12.82 7 20s5.82 13 13 13zm9.5-13.327c0 5.737-4.253 9.827-9.5 9.827s-9.5-4.09-9.5-9.827v-1.239c0-.341.392-.544.684-.358 6.132 3.906 11.429 3.904 17.634-.006.292-.184.682.018.682.358v1.245z"></path>
		</symbol>
		<symbol viewBox="0 0 40 40" id="icon-emote-wow" xmlns="http://www.w3.org/2000/svg">
			<path fill-rule="evenodd" clip-rule="evenodd" d="M20 33c7.18 0 13-5.82 13-13S27.18 7 20 7 7 12.82 7 20s5.82 13 13 13zm-4.5-18a1.5 1.5 0 1 0 0-3 1.5 1.5 0 0 0 0 3zM20 29.533c2.872 0 5.2-2.91 5.2-6.5s-2.328-6.5-5.2-6.5c-2.872 0-5.2 2.91-5.2 6.5s2.328 6.5 5.2 6.5zM26 13.5a1.5 1.5 0 1 1-3 0 1.5 1.5 0 0 1 3 0z"></path>
		</symbol>
		<symbol viewBox="0 0 40 40" id="icon-emote-sad" xmlns="http://www.w3.org/2000/svg">
			<path fill-rule="evenodd" clip-rule="evenodd" d="M20 33c7.18 0 13-5.82 13-13S27.18 7 20 7 7 12.82 7 20s5.82 13 13 13zm6.338-6.065c.347.207.788-.117.628-.488C25.58 23.213 22.756 21 19.5 21c-3.257 0-6.08 2.213-7.466 5.447-.16.371.28.695.628.489 1.877-1.119 4.254-1.787 6.838-1.787 2.584 0 4.96.668 6.838 1.786z"></path>
		</symbol>
		<symbol viewBox="0 0 40 40" id="icon-emote-angry" xmlns="http://www.w3.org/2000/svg">
			<path fill-rule="evenodd" clip-rule="evenodd" d="M20 33c7.18 0 13-5.82 13-13S27.18 7 20 7 7 12.82 7 20s5.82 13 13 13zm-1.252-9.9l.435-.754-8.78-5.07-.875 1.516 2.444 1.411a3.712 3.712 0 0 0 6.774 2.9l-.005-.002.007-.001zm2.504 0l-.435-.754 8.78-5.07.875 1.516-2.444 1.411a3.712 3.712 0 0 1-6.774 2.9l.005-.002-.007-.001z"></path>
		</symbol>
		<symbol viewBox="0 0 40 40" id="icon-emote-dislike" xmlns="http://www.w3.org/2000/svg">
			<path fill-rule="evenodd" clip-rule="evenodd" d="M27 13h1a2 2 0 1 1 0 4h-1 2a2 2 0 1 1 0 4 2 2 0 1 1 0 4h-7v5.051A3.949 3.949 0 0 1 18.051 34a.987.987 0 0 1-.987-.987v-5.524L13 21v-8a4 4 0 0 1 4-4h10a2 2 0 1 1 0 4zM12 23.016V11H8v12.016h4z"></path>
		</symbol>
	</defs>
</svg>