<svg xmlns="http://www.w3.org/2000/svg" xmlns:xlink="http://www.w3.org/1999/xlink" style="display: none;">
<defs>
<symbol id="icon-star" viewBox="0 0 1024 1024">
<title>star</title>
<path class="path1" d="M326.4 294.4c-396.8 0-435.2 121.6-115.2 364.8-121.6 396.8-19.2 467.2 300.8 224 320 243.2 422.4 166.4 294.4-224 320-243.2 281.6-364.8-115.2-364.8-115.2-390.4-243.2-390.4-364.8 0z"></path>
</symbol>
<symbol id="icon-archive" viewBox="0 0 1024 1024">
<title>archive</title>
<path class="path1" d="M768 1024h-512c-140.8 0-256-115.2-256-256v-512c0-140.8 115.2-256 256-256h512c140.8 0 256 115.2 256 256v512c0 140.8-115.2 256-256 256zM896 256c0-70.4-57.6-128-128-128h-512c-70.4 0-128 57.6-128 128v512c0 70.4 57.6 128 128 128h512c70.4 0 128-57.6 128-128v-512zM256 640h512v128h-512v-128zM256 448h512v128h-512v-128zM256 256h512v128h-512v-128z"></path>
</symbol>
<symbol id="icon-bad" viewBox="0 0 1024 1024">
<title>bad</title>
<path class="path1" d="M512 1024c-281.6 0-512-230.4-512-512s230.4-512 512-512c281.6 0 512 230.4 512 512s-230.4 512-512 512zM512 128c-211.2 0-384 172.8-384 384s172.8 384 384 384c211.2 0 384-172.8 384-384s-172.8-384-384-384zM512 512c-70.4 0-128 57.6-128 128h-128c0-140.8 115.2-256 256-256s256 115.2 256 256h-128c0-70.4-57.6-128-128-128z"></path>
</symbol>
<symbol id="icon-ca" viewBox="0 0 1807 1024">
<title>ca</title>
<path class="path1" d="M686.682 512c0-36.141 0-72.282 6.024-102.4 6.024-36.141 12.047-66.259 24.094-102.4 30.118-114.447 102.4-192.753 186.729-240.941 66.259-42.165 150.588-60.235 228.894-60.235s156.612 18.071 228.894 60.235c84.329 48.188 150.588 132.518 186.729 240.941 12.047 66.259 18.071 138.541 18.071 204.8 0 6.024 0 6.024 0 12.047 0 48.188 6.024 90.353 24.094 138.541 18.071 54.212 42.165 90.353 78.306 120.471 42.165 30.118 90.353 48.188 138.541 48.188l-102.4 186.729c-54.212-12.047-108.424-36.141-156.612-72.282-30.118-24.094-54.212-48.188-78.306-78.306-6.024 6.024-12.047 12.047-18.071 24.094-42.165 48.188-90.353 84.329-150.588 108.424s-132.518 36.141-198.776 36.141c-66.259 0-132.518-18.071-192.753-54.212l96.376-174.682c30.118 18.071 66.259 30.118 102.4 30.118s72.282-6.024 108.424-18.071c30.118-12.047 54.212-30.118 78.306-54.212 18.071-24.094 36.141-54.212 48.188-84.329 12.047-48.188 18.071-90.353 24.094-138.541 0-6.024 0-6.024 0-12.047v0c0-48.188-6.024-102.4-24.094-150.588-18.071-60.235-54.212-102.4-96.376-132.518-36.141-24.094-78.306-36.141-126.494-36.141-42.165 0-84.329 12.047-126.494 36.141-36.141 12.047-72.282 54.212-90.353 114.447-6.024 24.094-12.047 48.188-18.071 72.282s-6.024 48.188-6.024 72.282v0 0c0 36.141 0 72.282-6.024 102.4-6.024 36.141-12.047 66.259-24.094 102.4-30.118 114.447-102.4 192.753-186.729 246.965-66.259 42.165-150.588 60.235-228.894 60.235s-156.612-18.071-228.894-60.235c-84.329-48.188-150.588-132.518-186.729-246.965-6.024-60.235-18.071-126.494-18.071-198.776 0-66.259 12.047-138.541 30.118-204.8 30.118-96.376 84.329-168.659 150.588-222.871 72.282-54.212 168.659-84.329 259.012-84.329 36.141 0 78.306 6.024 114.447 12.047 36.141 12.047 72.282 24.094 102.4 42.165l-96.376 174.682c-18.071-12.047-42.165-18.071-60.235-24.094s-42.165-6.024-60.235-6.024c-48.188 0-102.4 18.071-138.541 48.188-36.141 24.094-66.259 66.259-78.306 114.447-18.071 48.188-24.094 102.4-24.094 150.588s6.024 96.376 24.094 150.588c18.071 60.235 54.212 102.4 96.376 126.494 36.141 24.094 78.306 36.141 126.494 36.141 42.165 0 84.329-12.047 126.494-36.141s78.306-72.282 96.376-126.494c6.024-24.094 12.047-54.212 18.071-78.306-6.024-24.094 0-48.188 0-72.282v0 0z"></path>
</symbol>
<symbol id="icon-calendar" viewBox="0 0 1024 1024">
<title>calendar</title>
<path class="path1" d="M768 1024h-512c-140.8 0-256-115.2-256-256v-512c0-140.8 115.2-256 256-256h512c140.8 0 256 115.2 256 256v512c0 140.8-115.2 256-256 256zM896 256c0-70.4-57.6-128-128-128h-512c-70.4 0-128 57.6-128 128v512c0 70.4 57.6 128 128 128h512c70.4 0 128-57.6 128-128v-512zM640 640h128v128h-128v-128zM640 448h128v128h-128v-128zM640 256h128v128h-128v-128zM448 640h128v128h-128v-128zM448 448h128v128h-128v-128zM448 256h128v128h-128v-128zM256 640h128v128h-128v-128zM256 448h128v128h-128v-128zM256 256h128v128h-128v-128z"></path>
</symbol>
<symbol id="icon-cat" viewBox="0 0 819 1024">
<title>cat</title>
<path class="path1" d="M614.4 409.6c-34.133 0-61.44-6.827-88.747-20.48l-136.533 136.533c13.653 27.307 20.48 54.613 20.48 88.747 0 27.307-6.827 54.613-20.48 81.92l129.707 88.747c27.307-20.48 61.44-34.133 95.573-34.133 75.093 0 136.533 61.44 136.533 136.533s-61.44 136.533-136.533 136.533-136.533-61.44-136.533-136.533c0-13.653 0-27.307 6.827-47.787l-129.707-88.747c-40.96 40.96-88.747 68.267-150.187 68.267-116.053 0-204.8-88.747-204.8-204.8s88.747-204.8 204.8-204.8c34.133 0 61.44 6.827 88.747 20.48l136.533-136.533c-13.653-27.307-20.48-54.613-20.48-88.747 0-116.053 88.747-204.8 204.8-204.8s204.8 88.747 204.8 204.8c0 116.053-88.747 204.8-204.8 204.8zM614.4 136.533c-40.96 0-68.267 27.307-68.267 68.267s27.307 68.267 68.267 68.267c40.96 0 68.267-27.307 68.267-68.267s-27.307-68.267-68.267-68.267z"></path>
</symbol>
<symbol id="icon-coms" viewBox="0 0 1024 1024">
<title>coms</title>
<path class="path1" d="M576 832v0c-19.2 0-44.8 0-64 0-281.6 0-512-185.6-512-416s230.4-416 512-416c268.8 0 492.8 166.4 512 384v0 640l-448-192zM896 384v0c-25.6-140.8-185.6-256-384-256-211.2 0-384 128-384 288s172.8 288 384 288c19.2 0 44.8 0 64-6.4v6.4l320 128v-448z"></path>
</symbol>
<symbol id="icon-dislike" viewBox="0 0 956 1024">
<title>dislike</title>
<path class="path1" d="M0 505.173c6.827 54.613 47.787 95.573 102.4 116.053 34.133 13.653 81.92 27.307 129.707 34.133-81.92 116.053-95.573 232.107-68.267 300.373 20.48 40.96 54.613 68.267 95.573 68.267 81.92 0 102.4-68.267 116.053-122.88 0-6.827 6.827-13.653 6.827-20.48 13.653-40.96 81.92-122.88 184.32-184.32 75.093-47.787 150.187-109.227 157.013-109.227 13.653-6.827 13.653-20.48 13.653-34.133v-430.080c0-13.653-6.827-27.307-20.48-34.133-61.44-47.787-279.893-88.747-389.12-88.747-54.613 0-75.093 6.827-88.747 13.653-47.787 34.133-116.053 197.973-163.84 334.507-54.613 40.96-81.92 102.4-75.093 157.013zM136.533 416.427c6.827-6.827 13.653-13.653 13.653-27.307 40.96-122.88 102.4-273.067 129.707-300.373 6.827 0 13.653-6.827 47.787-6.827 102.4 0 259.413 34.133 320.853 54.613v382.293c-20.48 34.133-75.093 75.093-122.88 102.4-109.227 68.267-204.8 157.013-225.28 232.107 0 6.827-6.827 13.653-6.827 27.307-20.48 54.613-20.48 54.613-34.133 54.613 0 0-6.827 0-13.653-13.653-20.48-40.96 0-157.013 95.573-259.413 6.827-13.653 13.653-34.133 6.827-47.787s-20.48-27.307-34.133-27.307c0 0-129.707-27.307-184.32-47.787-20.48-13.653-40.96-27.307-40.96-47.787-6.827-27.307 13.653-54.613 47.787-75.093z"></path>
<path class="path2" d="M887.467 634.88c40.96 0 68.267-34.133 68.267-75.093v-443.733c0-40.96-34.133-75.093-68.267-75.093-40.96 0-68.267 34.133-68.267 75.093v443.733c0 40.96 27.307 75.093 68.267 75.093z"></path>
</symbol>
<symbol id="icon-down" viewBox="0 0 1820 1024">
<title>down</title>
<path class="path1" d="M1820.444 159.289l-910.222 864.711-910.222-864.711 159.289-159.289 750.933 705.422 750.933-705.422 159.289 159.289z"></path>
</symbol>
<symbol id="icon-down2" viewBox="0 0 640 1024">
<title>down2</title>
<path class="path1" d="M352 0v902.4l243.2-240 44.8 41.6-320 320-320-320 44.8-44.8 243.2 243.2v-902.4h64z"></path>
</symbol>
<symbol id="icon-fav" viewBox="0 0 1024 1024">
<title>fav</title>
<path class="path1" d="M512 210.489c17.067 28.444 34.133 73.956 56.889 142.222l22.756 79.644h91.022c73.956 0 119.467 5.689 153.6 11.378-22.756 22.756-56.889 56.889-125.156 108.089l-62.578 45.511 22.756 73.956c22.756 73.956 34.133 125.156 39.822 159.289-28.444-17.067-68.267-39.822-125.156-79.644l-73.956-51.2-68.267 51.2c-56.889 45.511-96.711 68.267-125.156 79.644 5.689-34.133 17.067-79.644 39.822-159.289l22.756-73.956-62.578-45.511c-68.267-51.2-102.4-85.333-125.156-108.089 28.444-5.689 73.956-11.378 153.6-11.378h91.022l22.756-79.644c17.067-68.267 39.822-113.778 51.2-142.222zM512 56.889c-56.889 0-108.089 85.333-164.978 261.689 0 0 0 0-5.689 0-352.711 0-381.156 108.089-96.711 324.267-62.578 216.178-56.889 324.267 28.444 324.267 51.2 0 130.844-39.822 238.933-125.156 108.089 85.333 187.733 125.156 238.933 125.156 85.333 0 91.022-108.089 22.756-324.267 284.444-216.178 250.311-324.267-96.711-324.267 0 0 0 0-5.689 0-51.2-176.356-102.4-261.689-159.289-261.689v0z"></path>
</symbol>
<symbol id="icon-fb" viewBox="0 0 683 1024">
<title>fb</title>
<path class="path1" d="M443.733 1024v-469.333h204.8l34.133-179.2h-238.933v-119.467c0-51.2 17.067-85.333 119.467-85.333h119.467v-162.133c-25.6 0-93.867-8.533-179.2-8.533-179.2 0-298.667 85.333-298.667 238.933v136.533h-204.8v179.2h204.8v469.333h238.933z"></path>
</symbol>
<symbol id="icon-gp" viewBox="0 0 1536 1024">
<title>gp</title>
<path class="path1" d="M1399.467 588.8c0 51.2 0 93.867 0 145.067-42.667 0-93.867 0-136.533 0 0-51.2 0-93.867 0-145.067-42.667 0-93.867 0-136.533 0 0-51.2 0-93.867 0-145.067 42.667 0 93.867 0 136.533 0 0-51.2 0-93.867 0-145.067 42.667 0 93.867 0 136.533 0 0 51.2 0 93.867 0 145.067 42.667 0 93.867 0 136.533 0 0 51.2 0 93.867 0 145.067-42.667 0-93.867 0-136.533 0zM307.2 989.867c-187.733-76.8-324.267-290.133-307.2-503.467 0-264.533 238.933-494.933 486.4-486.4 119.467-8.533 230.4 51.2 324.267 128-34.133 42.667-76.8 93.867-119.467 136.533-110.933-85.333-273.067-110.933-384-17.067-162.133 110.933-162.133 384-17.067 512 145.067 145.067 426.667 68.267 469.333-145.067-93.867 0-187.733 0-281.6 0 0-59.733 0-119.467 0-170.667 153.6 0 307.2 0 469.333 0 8.533 136.533-8.533 281.6-85.333 392.533-119.467 179.2-358.4 230.4-554.667 153.6z"></path>
</symbol>
<symbol id="icon-info" viewBox="0 0 1024 1024">
<title>info</title>
<path class="path1" d="M512 512c-38.4 0-64-25.6-64-64s25.6-64 64-64 64 25.6 64 64c0 38.4-25.6 64-64 64zM704 985.6v-140.8c115.2-64 192-192 192-332.8 0-211.2-172.8-384-384-384s-384 172.8-384 384c0 192 140.8 345.6 320 377.6v-249.6c0-38.4 25.6-64 64-64s64 25.6 64 64v320c0 38.4-25.6 64-64 64-281.6 0-512-230.4-512-512s230.4-512 512-512c281.6 0 512 230.4 512 512 0 217.6-134.4 396.8-320 473.6z"></path>
</symbol>
<symbol id="icon-left" viewBox="0 0 1638 1024">
<title>left</title>
<path class="path1" d="M1638.4 563.2h-1438.72l384 389.12-71.68 71.68-512-512 512-512 71.68 71.68-384 389.12h1438.72v102.4z"></path>
</symbol>
<symbol id="icon-like" viewBox="0 0 956 1024">
<title>like</title>
<path class="path1" d="M955.733 518.827c-6.827-54.613-47.787-95.573-102.4-116.053-27.307-6.827-81.92-20.48-122.88-34.133 75.093-116.053 88.747-232.107 61.44-300.373-20.48-40.96-54.613-68.267-95.573-68.267-75.093 0-95.573 68.267-109.227 122.88 0 6.827-6.827 13.653-6.827 20.48-20.48 40.96-88.747 122.88-191.147 184.32-75.093 40.96-150.187 102.4-150.187 102.4-13.653 13.653-20.48 27.307-20.48 40.96v436.907c0 13.653 6.827 27.307 20.48 34.133 61.44 40.96 279.893 81.92 389.12 81.92 54.613 0 81.92-6.827 88.747-13.653 47.787-27.307 116.053-191.147 163.84-334.507 54.613-40.96 81.92-102.4 75.093-157.013zM819.2 607.573c-6.827 6.827-13.653 13.653-13.653 20.48-40.96 122.88-102.4 273.067-129.707 300.373-6.827 0-13.653 6.827-47.787 6.827-102.4 0-259.413-34.133-320.853-54.613v-389.12c27.307-20.48 75.093-54.613 122.88-88.747 109.227-68.267 204.8-157.013 225.28-232.107 0-6.827 6.827-13.653 6.827-27.307 13.653-54.613 20.48-54.613 34.133-54.613 0 0 6.827 0 13.653 13.653 20.48 40.96 0 157.013-95.573 259.413-6.827 13.653-6.827 34.133-6.827 47.787 6.827 13.653 20.48 27.307 34.133 27.307 0 0 129.707 27.307 184.32 47.787 27.307 6.827 40.96 27.307 47.787 47.787 0 27.307-20.48 54.613-54.613 75.093z"></path>
<path class="path2" d="M68.267 389.12c-40.96 0-68.267 34.133-68.267 75.093v443.733c0 40.96 34.133 75.093 68.267 75.093 40.96 0 68.267-34.133 68.267-75.093v-443.733c6.827-40.96-27.307-75.093-68.267-75.093z"></path>
</symbol>
<symbol id="icon-login" viewBox="0 0 1024 1024">
<title>login</title>
<path class="path1" d="M731.429 877.714h-438.857c-80.457 0-146.286 65.829-146.286 146.286h-146.286c0-160.914 131.657-292.571 292.571-292.571h438.857c160.914 0 292.571 131.657 292.571 292.571h-146.286c0-80.457-65.829-146.286-146.286-146.286zM512 585.143c-160.914 0-292.571-131.657-292.571-292.571s131.657-292.571 292.571-292.571c160.914 0 292.571 131.657 292.571 292.571s-131.657 292.571-292.571 292.571zM512 146.286c-80.457 0-146.286 65.829-146.286 146.286s65.829 146.286 146.286 146.286 146.286-65.829 146.286-146.286c0-80.457-65.829-146.286-146.286-146.286z"></path>
</symbol>
<symbol id="icon-logo" viewBox="0 0 1024 1024">
<title>logo</title>
<path class="path1" d="M409.6 602.21l4.876 4.876c26.819 26.819 60.952 39.010 95.086 39.010s70.705-12.19 95.086-39.010c26.819-26.819 39.010-60.952 39.010-95.086s-12.19-68.267-39.010-95.086v0 0 0c-26.819-26.819-60.952-39.010-95.086-39.010s-70.705 12.19-95.086 39.010c-26.819 26.819-39.010 60.952-39.010 95.086 0 31.695 12.19 65.829 34.133 90.21zM126.781 319.39l168.229 168.229c4.876-46.324 26.819-92.648 63.39-129.219 41.448-41.448 97.524-63.39 153.6-63.39s112.152 21.943 153.6 63.39v0 0l263.314 263.314c9.752-36.571 14.629-73.143 14.629-109.714 0-109.714-41.448-219.429-126.781-304.762-85.333-82.895-195.048-126.781-304.762-126.781s-219.429 41.448-304.762 126.781c-34.133 34.133-60.952 70.705-80.457 112.152zM358.4 665.6l-263.314-263.314c-9.752 36.571-14.629 73.143-14.629 109.714 0 109.714 41.448 219.429 126.781 304.762s195.048 126.781 304.762 126.781c109.714 0 219.429-41.448 304.762-126.781 34.133-34.133 60.952-70.705 80.457-112.152l-168.229-168.229c-4.876 46.324-26.819 92.648-63.39 129.219-41.448 41.448-97.524 63.39-153.6 63.39s-112.152-21.943-153.6-63.39v0zM872.838 151.162c99.962 99.962 151.162 229.181 151.162 360.838s-51.2 260.876-151.162 360.838-229.181 151.162-360.838 151.162c-131.657 0-260.876-51.2-360.838-151.162s-151.162-229.181-151.162-360.838c0-131.657 51.2-260.876 151.162-360.838s229.181-151.162 360.838-151.162c131.657 0 260.876 51.2 360.838 151.162z"></path>
</symbol>
<symbol id="icon-love" viewBox="0 0 1084 1024">
<title>love</title>
<path class="path1" d="M307.2 180.706c60.235 0 114.447 72.282 126.494 96.376 18.071 36.141 60.235 60.235 102.4 60.235 0 0 0 0 0 0 42.165 0 84.329-24.094 102.4-60.235 24.094-24.094 78.306-96.376 138.541-96.376 18.071 0 42.165 6.024 72.282 24.094 48.188 36.141 60.235 66.259 60.235 90.353 6.024 132.518-186.729 361.412-361.412 512-174.682-150.588-367.435-373.459-361.412-512-6.024-24.094 0-54.212 54.212-90.353 24.094-18.071 48.188-24.094 66.259-24.094zM777.035 60.235c-144.565 0-234.918 162.635-234.918 162.635s-90.353-162.635-234.918-162.635c-42.165 0-84.329 12.047-138.541 48.188-385.506 259.012 379.482 855.341 379.482 855.341s758.965-596.329 367.435-855.341c-54.212-36.141-96.376-48.188-138.541-48.188v0z"></path>
</symbol>
<symbol id="icon-mail" viewBox="0 0 1007 1024">
<title>mail</title>
<path class="path1" d="M485.966 216.949c78.102 0 147.525 34.712 199.593 95.458v0c8.678-34.712 26.034-52.068 43.39-52.068h8.678c34.712 0 43.39 34.712 43.39 43.39v425.22c0 26.034 26.034 43.39 43.39 26.034 60.746-69.424 138.847-355.797-43.39-520.678-164.881-164.881-390.508-138.847-512-52.068-121.492 95.458-208.271 303.729-130.169 494.644 86.78 208.271 329.763 277.695 477.288 208.271 78.102-34.712 112.814 78.102 34.712 112.814-112.814 52.068-442.576 43.39-590.102-234.305-104.136-190.915-95.458-520.678 173.559-685.559 208.271-130.169 485.966-95.458 650.847 86.78 173.559 190.915 164.881 546.712-8.678 685.559-78.102 60.746-190.915 0-190.915-86.78v-26.034c-52.068 52.068-121.492 86.78-199.593 86.78-147.525 0-286.373-147.525-286.373-303.729 0-164.881 138.847-303.729 286.373-303.729v0 0 0zM676.881 503.322c-8.678-121.492-86.78-190.915-190.915-190.915v0c-112.814 8.678-182.237 104.136-182.237 208.271 0 121.492 78.102 199.593 182.237 199.593 112.814 0 190.915-86.78 190.915-190.915v-26.034z"></path>
</symbol>
<symbol id="icon-od" viewBox="0 0 623 1024">
<title>od</title>
<path class="path1" d="M315.733 520.533c145.067 0 264.533-119.467 264.533-256 0-145.067-119.467-256-264.533-256-145.067-8.533-264.533 110.933-264.533 247.467 0 145.067 119.467 264.533 264.533 264.533zM315.733 128c68.267 0 128 59.733 128 128s-59.733 128-128 128c-76.8 0-136.533-51.2-136.533-128s59.733-128 136.533-128zM614.4 546.133c-17.067-25.6-59.733-51.2-110.933-8.533-76.8 59.733-187.733 59.733-187.733 59.733s-119.467 0-196.267-59.733c-51.2-42.667-93.867-17.067-110.933 8.533-25.6 51.2 0 76.8 68.267 119.467 59.733 34.133 136.533 51.2 179.2 51.2l-34.133 42.667c-59.733 59.733-119.467 110.933-153.6 153.6-25.6 25.6-25.6 59.733 0 85.333l8.533 8.533c25.6 25.6 59.733 25.6 85.333 0l153.6-153.6c59.733 59.733 119.467 110.933 153.6 153.6 25.6 25.6 59.733 25.6 85.333 0l8.533-8.533c25.6-25.6 25.6-59.733 0-85.333l-162.133-153.6-34.133-34.133c51.2-8.533 128-17.067 179.2-51.2 68.267-51.2 93.867-76.8 68.267-128z"></path>
</symbol>
<symbol id="icon-pass" viewBox="0 0 878 1024">
<title>pass</title>
<path class="path1" d="M585.143 1024h-292.571c-160.914 0-292.571-131.657-292.571-292.571v-146.286c0-109.714 58.514-204.8 146.286-248.686v-43.886c0-160.914 131.657-292.571 292.571-292.571 124.343 0 226.743 73.143 270.629 182.857l-131.657 58.514c-21.943-58.514-80.457-95.086-138.971-95.086-80.457 0-146.286 65.829-146.286 146.286h292.571c160.914 0 292.571 131.657 292.571 292.571v146.286c0 160.914-131.657 292.571-292.571 292.571zM731.429 585.143c0-80.457-65.829-146.286-146.286-146.286h-292.571c-80.457 0-146.286 65.829-146.286 146.286v146.286c0 80.457 65.829 146.286 146.286 146.286h292.571c80.457 0 146.286-65.829 146.286-146.286v-146.286zM512 731.429h-146.286c-43.886 0-73.143-29.257-73.143-73.143s29.257-73.143 73.143-73.143h146.286c43.886 0 73.143 29.257 73.143 73.143s-29.257 73.143-73.143 73.143z"></path>
</symbol>
<symbol id="icon-rel" viewBox="0 0 1146 1024">
<title>rel</title>
<path class="path1" d="M981.035 981.035l-100.252-100.252c164.699-164.699 164.699-436.811 0-608.671-164.699-164.699-436.811-164.699-608.671 0-150.378 150.378-164.699 386.685-42.965 551.385l279.273-279.273h-171.86v-107.413h372.364v372.364h-100.252v-171.86l-379.524 379.524c-21.483-14.322-35.804-28.643-57.287-50.126-221.986-221.986-221.986-587.189 0-809.175s587.189-221.986 809.175 0c221.986 236.308 221.986 594.35 0 823.497z"></path>
</symbol>
<symbol id="icon-reply" viewBox="0 0 960 1024">
<title>reply</title>
<path class="path1" d="M416 128c-160 0-288 128-288 288s128 288 288 288c12.8 0 19.2 0 32-6.4v6.4h249.6l-121.6-108.8 96-83.2 288 256-96 83.2-192 172.8-96-83.2 121.6-108.8h-249.6v-6.4c-12.8 6.4-19.2 6.4-32 6.4-230.4 0-416-185.6-416-416s185.6-416 416-416c217.6 0 396.8 166.4 409.6 384h-128c-12.8-140.8-134.4-256-281.6-256z"></path>
</symbol>
<symbol id="icon-right" viewBox="0 0 1638 1024">
<title>right</title>
<path class="path1" d="M0 460.8h1443.84l-384-389.12 66.56-71.68 512 512-512 512-71.68-71.68 384-389.12h-1438.72v-102.4z"></path>
</symbol>
<symbol id="icon-search" viewBox="0 0 1024 1024">
<title>search</title>
<path class="path1" d="M1024 934.4l-89.6 89.6-217.6-217.6c-172.8 128-422.4 115.2-582.4-38.4-172.8-172.8-172.8-460.8 0-633.6s460.8-172.8 633.6 0c160 160 172.8 409.6 38.4 582.4l217.6 217.6zM672 224c-121.6-121.6-326.4-121.6-448 0s-121.6 326.4 0 448c6.4 12.8 19.2 19.2 32 32v0h6.4c108.8 83.2 262.4 83.2 371.2 0h6.4v-6.4c12.8-6.4 19.2-19.2 32-25.6 128-121.6 128-326.4 0-448zM512 448c0-38.4-25.6-64-64-64s-64 32-64 64h-128v6.4c0-51.2 19.2-102.4 57.6-140.8 76.8-76.8 198.4-76.8 268.8 0 38.4 38.4 57.6 83.2 57.6 134.4h-128z"></path>
</symbol>
<symbol id="icon-set" viewBox="0 0 1024 1024">
<title>set</title>
<path class="path1" d="M1024 576l-160 83.2 57.6 172.8-89.6 89.6-172.8-57.6-83.2 160h-128l-83.2-160-172.8 57.6-89.6-89.6 57.6-172.8-160-83.2v-128l160-83.2-57.6-166.4 89.6-89.6 172.8 57.6 83.2-166.4h128l83.2 160 172.8-57.6 89.6 89.6-57.6 172.8 160 83.2v128zM684.8 441.6l102.4-198.4-204.8 96-70.4-211.2-70.4 211.2-198.4-96 102.4 198.4-217.6 70.4 211.2 70.4-102.4 198.4 198.4-102.4 76.8 217.6 70.4-211.2 198.4 102.4-102.4-198.4 217.6-76.8-211.2-70.4zM512 640c-70.4 0-128-57.6-128-128s57.6-128 128-128c70.4 0 128 57.6 128 128s-57.6 128-128 128z"></path>
</symbol>
<symbol id="icon-share" viewBox="0 0 896 1024">
<title>share</title>
<path class="path1" d="M704 384c-44.8 0-83.2-12.8-115.2-38.4l-211.2 128c6.4 12.8 6.4 25.6 6.4 38.4s0 25.6-6.4 38.4l211.2 128c32-25.6 70.4-38.4 115.2-38.4 108.8 0 192 83.2 192 192s-83.2 192-192 192c-108.8 0-192-83.2-192-192 0-12.8 0-25.6 6.4-38.4l-211.2-128c-32 25.6-70.4 38.4-115.2 38.4-108.8 0-192-83.2-192-192s83.2-192 192-192c44.8 0 83.2 12.8 115.2 38.4l211.2-128c-6.4-12.8-6.4-25.6-6.4-38.4 0-108.8 83.2-192 192-192s192 83.2 192 192c0 108.8-83.2 192-192 192zM704 896c38.4 0 64-25.6 64-64s-25.6-64-64-64c-38.4 0-64 25.6-64 64s25.6 64 64 64zM192 448c-38.4 0-64 25.6-64 64s25.6 64 64 64 64-25.6 64-64c0-38.4-25.6-64-64-64zM704 128c-38.4 0-64 25.6-64 64s25.6 64 64 64c38.4 0 64-25.6 64-64s-25.6-64-64-64z"></path>
</symbol>
<symbol id="icon-sort_down" viewBox="0 0 549 1024">
<title>sort_down</title>
<path class="path1" d="M549.236 660.945l-363.055 363.055h-186.182v-1024h186.182v763.345l232.727-232.727 130.327 130.327z"></path>
</symbol>
<symbol id="icon-sort_up" viewBox="0 0 549 1024">
<title>sort_up</title>
<path class="path1" d="M418.909 502.691l-232.727-242.036v763.345h-186.182v-1024h186.182l363.055 363.055-130.327 139.636z"></path>
</symbol>
<symbol id="icon-top" viewBox="0 0 640 1024">
<title>top</title>
<path class="path1" d="M595.2 364.8l-243.2-240v899.2h-64v-899.2l-243.2 240-44.8-44.8 320-320 320 320-44.8 44.8z"></path>
</symbol>
<symbol id="icon-tw" viewBox="0 0 1195 1024">
<title>tw</title>
<path class="path1" d="M1194.667 119.467v0 0zM827.733 0c-136.533 0-247.467 119.467-247.467 256 0 17.067 0 42.667 8.533 59.733-204.8-8.533-384-110.933-503.467-264.533-25.6 34.133-34.133 76.8-34.133 128 0 93.867 42.667 170.667 110.933 213.333-42.667 0-76.8-17.067-110.933-34.133 0 0 0 0 0 0 0 128 85.333 230.4 196.267 256-25.6 8.533-42.667 8.533-68.267 8.533-17.067 0-34.133 0-42.667-8.533 25.6 110.933 119.467 187.733 230.4 187.733-85.333 68.267-187.733 110.933-307.2 110.933-17.067 0-42.667 0-59.733 0 110.933 68.267 238.933 110.933 375.467 110.933 452.267 0 699.733-392.533 699.733-733.867 0-8.533 0-25.6 0-34.133 51.2-34.133 85.333-85.333 119.467-136.533-42.667 17.067-93.867 34.133-136.533 42.667 51.2-34.133 85.333-85.333 110.933-145.067-51.2 25.6-102.4 51.2-153.6 59.733-51.2-42.667-119.467-76.8-187.733-76.8z"></path>
</symbol>
<symbol id="icon-up" viewBox="0 0 640 1024">
<title>up</title>
<path class="path1" d="M288 1024v-899.2l-243.2 240-44.8-44.8 320-320 320 320-44.8 44.8-243.2-240v899.2h-64z"></path>
</symbol>
<symbol id="icon-views" viewBox="0 0 936 1024">
<title>views</title>
<path class="path1" d="M596.846 848.457l93.623 93.623-81.92 81.92-163.84-163.84c0 0-5.851 0-5.851 0l128.731-128.731c146.286-29.257 251.611-117.029 251.611-222.354 0-99.474-99.474-187.246-234.057-216.503l93.623-93.623c152.137 58.514 257.463 175.543 257.463 310.126 0 163.84-140.434 298.423-339.383 339.383zM468.114 626.103c-64.366 0-117.029-52.663-117.029-117.029s52.663-117.029 117.029-117.029 117.029 52.663 117.029 117.029c0 64.366-52.663 117.029-117.029 117.029zM117.029 509.074c0 111.177 122.88 204.8 280.869 228.206l-99.474 99.474c-175.543-52.663-298.423-175.543-298.423-327.68 0-169.691 163.84-315.977 386.194-345.234l-87.771-81.92 81.92-81.92 163.84 163.84-117.029 117.029c-169.691 11.703-310.126 111.177-310.126 228.206z"></path>
</symbol>
<symbol id="icon-vk" viewBox="0 0 868 1024">
<title>vk</title>
<path class="path1" d="M807.051 555.39c-43.39-43.39-95.458-69.424-164.881-86.78v0c43.39-17.356 86.78-52.068 112.814-86.78 26.034-43.39 43.39-86.78 43.39-138.847 0-43.39-8.678-86.78-26.034-112.814-17.356-34.712-52.068-60.746-86.78-78.102-43.39-26.034-78.102-34.712-121.492-43.39s-104.136-8.678-182.237-8.678h-381.831v1041.356h433.898c78.102 0 138.847-8.678 182.237-17.356 52.068-17.356 95.458-34.712 130.169-69.424 34.712-26.034 60.746-60.746 78.102-95.458 17.356-43.39 34.712-86.78 34.712-138.847 8.678-69.424-8.678-121.492-52.068-164.881zM503.322 355.797c-8.678 17.356-17.356 26.034-43.39 43.39-17.356 8.678-34.712 8.678-60.746 8.678-17.356 0-52.068 0-95.458 0h-34.712v-216.949h17.356c52.068 0 86.78 0 112.814 0s43.39 8.678 60.746 8.678c17.356 8.678 34.712 17.356 43.39 34.712 8.678 26.034 17.356 43.39 17.356 60.746 0 26.034-8.678 43.39-17.356 60.746zM572.746 781.017c-17.356 26.034-34.712 34.712-60.746 52.068-26.034 8.678-52.068 17.356-78.102 17.356s-78.102 0-147.525 0h-17.356v-260.339h52.068c52.068 0 86.78 0 112.814 0s52.068 0 69.424 8.678c26.034 8.678 52.068 26.034 60.746 43.39 17.356 17.356 17.356 43.39 17.356 78.102 8.678 26.034 0 43.39-8.678 60.746z"></path>
</symbol>
<symbol id="icon-votes" viewBox="0 0 1170 1024">
<title>votes</title>
<path class="path1" d="M1097.143 146.286h-1024c-43.886 0-73.143-29.257-73.143-73.143s29.257-73.143 73.143-73.143h1024c43.886 0 73.143 29.257 73.143 73.143s-29.257 73.143-73.143 73.143zM73.143 292.571h512c43.886 0 73.143 29.257 73.143 73.143s-29.257 73.143-73.143 73.143h-512c-43.886 0-73.143-29.257-73.143-73.143s29.257-73.143 73.143-73.143zM73.143 585.143h804.571c43.886 0 73.143 29.257 73.143 73.143s-29.257 73.143-73.143 73.143h-804.571c-43.886 0-73.143-29.257-73.143-73.143s29.257-73.143 73.143-73.143zM73.143 877.714h292.571c43.886 0 73.143 29.257 73.143 73.143s-29.257 73.143-73.143 73.143h-292.571c-43.886 0-73.143-29.257-73.143-73.143s29.257-73.143 73.143-73.143z"></path>
</symbol>
<symbol id="icon-cross" viewBox="0 0 1024 1024">
<title>cross</title>
<path class="path1" d="M1024 904.533l-119.467 119.467-392.533-401.067-401.067 401.067-110.933-119.467 401.067-392.533-401.067-401.067 110.933-110.933 401.067 401.067 392.533-401.067 119.467 110.933-401.067 401.067 401.067 392.533z"></path>
</symbol>
<symbol id="icon-phone" viewBox="0 0 745 1024">
<title>phone</title>
<path fill="#fff" class="path1" d="M372.364 837.818c52.752 0 93.091 40.339 93.091 93.091s-40.339 93.091-93.091 93.091-93.091-40.339-93.091-93.091 40.339-93.091 93.091-93.091z"></path>
<path fill="#3394e6" class="path2" d="M651.636 465.455c-52.752 0-93.091-40.339-93.091-93.091s40.339-93.091 93.091-93.091c52.752 0 93.091 40.339 93.091 93.091s-40.339 93.091-93.091 93.091zM651.636 186.182c-52.752 0-93.091-40.339-93.091-93.091s40.339-93.091 93.091-93.091c52.752 0 93.091 40.339 93.091 93.091s-40.339 93.091-93.091 93.091zM372.364 744.727c-52.752 0-93.091-40.339-93.091-93.091s40.339-93.091 93.091-93.091 93.091 40.339 93.091 93.091-40.339 93.091-93.091 93.091zM372.364 465.455c-52.752 0-93.091-40.339-93.091-93.091s40.339-93.091 93.091-93.091 93.091 40.339 93.091 93.091-40.339 93.091-93.091 93.091zM372.364 186.182c-52.752 0-93.091-40.339-93.091-93.091s40.339-93.091 93.091-93.091 93.091 40.339 93.091 93.091-40.339 93.091-93.091 93.091zM93.091 744.727c-52.752 0-93.091-40.339-93.091-93.091s40.339-93.091 93.091-93.091 93.091 40.339 93.091 93.091-40.339 93.091-93.091 93.091zM93.091 465.455c-52.752 0-93.091-40.339-93.091-93.091s40.339-93.091 93.091-93.091 93.091 40.339 93.091 93.091-40.339 93.091-93.091 93.091zM93.091 186.182c-52.752 0-93.091-40.339-93.091-93.091s40.339-93.091 93.091-93.091 93.091 40.339 93.091 93.091-40.339 93.091-93.091 93.091zM651.636 558.545c52.752 0 93.091 40.339 93.091 93.091s-40.339 93.091-93.091 93.091c-52.752 0-93.091-40.339-93.091-93.091s40.339-93.091 93.091-93.091z"></path>
</symbol>
<symbol id="icon-loc" viewBox="0 0 847 1024">
<title>loc</title>
<path fill="#3394e6" class="path1" d="M741.517 706.207l-317.793 317.793-317.793-317.793c-67.090-74.152-105.931-173.021-105.931-282.483 0-233.048 190.676-423.724 423.724-423.724s423.724 190.676 423.724 423.724c0 109.462-42.372 204.8-105.931 282.483z"></path>
<path fill="#fff" class="path2" d="M423.724 247.172c98.869 0 176.552 77.683 176.552 176.552s-77.683 176.552-176.552 176.552-176.552-77.683-176.552-176.552 77.683-176.552 176.552-176.552z"></path>
</symbol>
<symbol id="icon-ya" viewBox="0 0 486 1024">
<title>ya</title>
<path class="path1" d="M473.6 0h-153.6c-153.6 0-281.6 115.2-281.6 339.2 0 134.4 64 236.8 172.8 281.6l-211.2 384c-6.4 12.8 0 19.2 12.8 19.2h96c6.4 0 12.8 0 19.2-6.4l192-371.2h64v371.2c0 0 6.4 6.4 12.8 6.4h83.2c6.4 0 12.8-6.4 12.8-12.8v-998.4c-6.4-6.4-6.4-12.8-19.2-12.8zM384 556.8h-57.6c-89.6 0-179.2-64-179.2-230.4 0-172.8 83.2-243.2 166.4-243.2h70.4v473.6z"></path>
</symbol>
</defs>
</svg>